/* XPM */
static char *_947e7cf_6217_4718_9589_2bb96429413f1741481270[] = {
/* columns rows colors chars-per-pixel */
"62 62 129 2 ",
"   c #040405",
".  c #02020C",
"X  c #0A0A0A",
"o  c #0E1A0A",
"O  c #101F0A",
"+  c #010113",
"@  c #00001B",
"#  c #0E1A12",
"$  c #131313",
"%  c #13131C",
"&  c #1B1B1B",
"*  c #13220D",
"=  c #142B0D",
"-  c #122211",
";  c #1A2E14",
":  c #11251B",
">  c #1D211D",
",  c #12281C",
"<  c #193213",
"1  c #1D3E15",
"2  c #21261F",
"3  c #000024",
"4  c #0E0E22",
"5  c #00002D",
"6  c #0E0E2B",
"7  c #0E1A24",
"8  c #0E1A2A",
"9  c #141422",
"0  c #1B1B24",
"q  c #14142E",
"w  c #1E1E2C",
"e  c #000033",
"r  c #01013B",
"t  c #1E1E3E",
"y  c #1A3820",
"u  c #232323",
"i  c #232922",
"p  c #26262F",
"a  c #2C2C2C",
"s  c #272734",
"d  c #25253E",
"f  c #2A2A3F",
"g  c #2E313D",
"h  c #343434",
"j  c #343933",
"k  c #33343C",
"l  c #3C3C3C",
"z  c #000046",
"x  c #090946",
"c  c #00004B",
"v  c #000053",
"b  c #00005A",
"n  c #0C0C5A",
"m  c #2D2D43",
"M  c #2D3046",
"N  c #343544",
"B  c #3E3E40",
"V  c #35354B",
"C  c #39394A",
"Z  c #2A2A54",
"A  c #2A2A5C",
"S  c #333354",
"D  c #393952",
"F  c #303058",
"G  c #3D3D5E",
"H  c #000064",
"J  c #070C66",
"K  c #090A64",
"L  c #00006B",
"P  c #0C0C6C",
"I  c #000073",
"U  c #0A0A72",
"Y  c #00007D",
"T  c #0A0A7B",
"R  c #2B2B63",
"E  c #373765",
"W  c #313171",
"Q  c #454545",
"!  c #474A46",
"~  c #41414D",
"^  c #4C4C4C",
"/  c #4F4F52",
"(  c #424258",
")  c #4E4E5C",
"_  c #545454",
"`  c #545459",
"'  c #5B5B5B",
"]  c #565662",
"[  c #5E5E70",
"{  c #636363",
"}  c #6C6C6C",
"|  c #6F6F7F",
" . c #737373",
".. c #7B7B7B",
"X. c #000084",
"o. c #0D0D83",
"O. c #00008B",
"+. c #000095",
"@. c #0B0B90",
"#. c #00009B",
"$. c #090998",
"%. c #0000A2",
"&. c #0408A2",
"*. c #0F0FA4",
"=. c #0000AD",
"-. c #0909AD",
";. c #0000B3",
":. c #0000BB",
">. c #0909BC",
",. c #0000C4",
"<. c #0A0AC3",
"1. c #0000CB",
"2. c #0000D3",
"3. c #0909D3",
"4. c #0000DC",
"5. c #0000E2",
"6. c #0101EA",
"7. c #0000F4",
"8. c #0202FA",
"9. c #1414F7",
"0. c #1616FE",
"q. c #1919FE",
"w. c #2828EE",
"e. c #2020FF",
"r. c #3131F7",
"t. c #3030FF",
"y. c gray51",
"u. c #8B8B8B",
"i. c #949494",
/* pixels */
"^ Q Q l Q ^ Q Q ^ ! ^ Q l B Q ^ Q Q ^ Q ^ Q Q Q ^ Q ^ ^ ^ ^ _ _ _ _ ^ ! ! l Q Q ! Q Q ^ Q ^ Q B Q ^ Q / Q ^ Q ^ Q Q ! Q Q l ",
"^ Q Q l Q ^ Q Q ^ ! ^ ! B ! Q ^ Q ! ^ ^ ^ Q Q Q ^ Q ^ ^ ^ _ { { { { ' / Q Q Q Q ^ Q Q ^ ! ^ ! Q Q ^ Q / Q / ! ^ Q ! ^ Q ! B ",
"^ ^ Q Q ^ ^ ^ ^ ^ ^ ^ ^ ! ^ ^ ^ Q ^ ^ ^ / ^ Q ^ Q l j h l ^ { } } { _ Q a h l ! ^ ! ^ ^ ^ ^ ^ Q ^ ^ ^ _ ^ ^ ^ ^ ^ ! / ! ! Q ",
"_ ^ ^ Q ^ ^ ! ^ _ ^ ' ^ ! ^ ^ ^ ^ ^ ^ ^ / B B B l h n P o.N ' } } ' B T U K & u h l Q ^ ^ ^ ^ ^ ^ / ^ _ ^ / ^ ^ ^ ! / ^ ^ Q ",
"_ ^ ^ ! ^ _ ^ / _ / _ / ^ / / _ ^ _ _ Q B h n U K 9 + + I -.C ' ] Q *.Y L 6 & u U K p B ^ _ / ^ ^ _ ^ ' / _ ^ _ ^ ^ _ / ^ ! ",
"_ _ ^ ! ^ ` / / ' _ ' _ ^ / _ ` ^ ^ Q h h u 9 + +   e r z O.-.C B *.+.z z .     H L 0 a l Q ^ / ^ ' ^ ' / _ ^ ' _ ^ _ / ^ ^ ",
"' _ _ ^ _ ' / _ _ _ _ ' ^ / _ ! B a & % X   e z b L H H H X.I >.<.%.H H H H b z @ +   x P k B Q _ ' _ ' _ _ _ ' ' / ' _ / ^ ",
"' _ _ / _ ' _ _ ' ' ' _ / Q Q u h U x X r z H H L L Y Y L L Y :.:.#.L L Y X.X.Y L b z v L $.T 0 l ^ _ { ' ' ' ' _ _ ' _ _ / ",
"' ' _ _ ' ' _ ' ' ' ' ' ! l a & x b v z v H L Y L L L X.Y L I O.#.;.X.X.X.+.X.X.X.Y #.+.b I b % & j ^ { ' ' ' ' ' _ ' ' ' / ",
"{ ' ' _ ' ' ' ' { ' { / B & x . z v v v H L Y I L L L I X.Y Y X.X.%.X.X.+.+.X.X.X.X.,.#.X.b @   $ & l ^ ' { ' ' ' ' { ' _ _ ",
"{ ' ' _ ' { ' ' { { _ Q a 0 + r c v b H L Y I L L Y L Y L X.X.X.X.+.X.X.O.+.O.+.X.X.,.%.X.Y b z   & 2 l ^ { ' ' ' ' { ' ' _ ",
"{ { ' ' { { ' { } _ a a n X c v v v H L L L L L L L Y I Y Y X.X.X.#.+.X.+.+.+.#.+.X.2.%.X.X.+.Y c   T a l ^ } { { ' { { ' ' ",
"} { { ' { { { } _ h & $ x z I b v I b L Y L L O.I Y I I I Y X.X.+.#.O.X.O.+.#.#.#.+.4.;.O.+.#.+.Y b b 0 2 l ^  .} { } { { ' ",
"} { { ' { } } _ B > $ r c v Y b v Y Y Y L L O.#.X.I Y X.X.X.X.X.#.#.X.X.+.#.O.#.#.O.1.%.+.O.#.#.$.%.L + & & l _  .{ } { { ' ",
"} } { { }  .{ Q h T X c c v Y L v +.X.I L L X.O.I I I X.Y X.X.X.O.+.+.X.+.;.X.+.O.+.,.;.O.+.O.+.,.;.X.c   $ & l }  . .} { { ",
"} } } { } .._ j *.I c v v v Y b v L I L L L X.I Y X.Y X.X.X.X.X.X.+.O.X.+.%.=.+.=.=.;.;.+.+.+.=.;.%.+.Y b . $ u _  . .} } { ",
" .} } { } } Q u +.3 c v c v Y H b L L L O.X.I Y I X.X.+.X.+.X.X.X.+.X.+.+.=.%.=.%.;.;.;.%.=.;.;.#.=.=.=.X.c 0 & l }  . .} { ",
" . .} }  ._ l n 3 r v v c b Y b H H L O.I I Y X.Y Y X.O.+.+.+.O.X.O.X.O.=.;.=.;.=.;.;.#.+.=.;.%.#.;.;.%.$.L r u u / .. .} } ",
" . .} } { Q u + + c v v v v Y L b O.+.X.L Y I Y X.X.X.+.O.#.#.+.O.+.X.+.#.;.;.,.;.;.%.+.=.,.%.=.;.,.%.=.#.+.b . > B } .. .} ",
" . . .} _ l &   e c v v v v L b H +.I I L X.Y X.X.X.X.X.X.+.#.#.+.#.+.#.=.;.;.:.;.%.=.;.,.:.=.,.1.;.;.%.=.#.O.. u l ' .. .} ",
".. . .} Q a X + c v c v v H b H b I O.X.L X.X.X.=.+.X.X.X.+.#.#.O.=.=.#.#.;.%.%.%.=.;.,.%.;.,.1.%.%.;.=.;.;.#.v . T ~ }  . .",
"y....._ a &   e v H v v v b H L L L I I I X.X.X.=.O.X.X.X.X.#.O.+.=.;.#.#.;.=.#.=.,.1.%.+.,.1.:.;.=.,.,.;.#.#.O.. =.@.]  .} ",
"y.y. .^ a $   c v L H b v H b L Y Y L %.I X.X.+.=.+.X.X.X.+.#.=.O.;.;.=.;.;.%.#.,.1.=.,.,.4.:.,.;.2.1.4.=.=.#.=.b I I ~  . .",
"y.....^ u   + r v b I v c b H L L I Y #.X.X.X.O.,.%.X.X.X.X.=.%.+.;.;.%.;.#.#.:.;.%.#.,.1.:.1.:.4.2.4.;.+.;.;.;.L @ 4 B }  .",
"y... .B & + e r r H Y b v H b L L Y I =.I Y X.+.2.%.X.X.+.+.%.+.O.:.;.=.;.#.#.,.;.,.,.4.:.,.;.4.1.4.=.,.=.2.:.;.+.. $ j { ..",
"u.y.{ u & X e r r H X.b v H O.L L L L =.X.X.X.O.7.%.X.X.+.%.;.#.+.1.:.%.;.;.#.,.;.%.4.5.1.1.4.4.5.2.,.4.1.:.;.;.=.+ $ h ' ..",
"u.y.^ 2   r z r r b Y L b L b Y Y Y L =.I X.X.+.7.%.X.+.+.=.%.+.#.,.;.;.;.;.#.4.;.,.1.5.1.1.5.6.5.1.=.4.:.,.1.2.1.z X h Q ..",
"u.u.h & z v v r c I X.b v H L L +.I Y #.X.X.X.X.4.%.O.X.#.;.=.%.+.4.1.%.=.;.#.1.1.1.4.2.1.4.5.5.2.1.,.4.1.4.5.2.1.X.. T C ..",
"i.y.h & b c v c v Y X.b v L b L +.X.I =.I X.X.+.1.%.X.X.+.;.%.#.#.4.:.#.;.;.#.4.:.,.5.1.1.5.5.2.1.4.7.6.:.4.2.4.1.H z ;.m  .",
"i.y.l & U b H b v b Y b H L H L +.I I =.X.X.X.X.,.%.X.+.;.O.+.=.#.7.1.%.;.;.#.4.1.1.5.1.1.5.5.1.4.9.0.8.7.2.4.=.1.z I 2.( ..",
"i.../ h O.O.L b c I X.L b H b H +.X.I #.O.X.X.+.;.#.X.=.%.+.#.;.#.7.,.=.;.;.+.4.:.1.5.1.1.5.5.4.7.q.t.q.6.4.2.,.1.I +.A ` ..",
"i.u.} ' V ;.+.b v L Y b v L L L +.I X.+.+.X.X.X.;.#.+.%.O.#.+.;.#.4.1.;.;.;.,.7.4.1.6.1.1.4.6.8.6.q.e.q.8.6.4.=.1.2.Z _  ...",
"i.i.y.} ` S 4.H H b b v v H L L +.X.I +.O.X.X.+.#.;.O.+.X.=.+.#.#.1.:.;.%.,.%.8.,.1.5.1.1.5.5.6.8.8.6.8.6.2.5.;.w.R ` }  .y.",
"i.i.y. .' l 6.K L I b v H L L L +.I Y X.X.X.X.X.+.,.O.O.=.;.;.#.#.,.1.;.;.;.#.5.4.1.5.5.1.2.5.5.6.6.8.6.2.4.2.;.r.C ` } ....",
"i.u. .{ Q *.=.b c b c H b H b L +.X.I +.X.X.X.X.+.,.O.+.%.;.%.=.#.1.:.;.;.;.#.4.:.1.1.5.1.1.5.1.1.5.6.2.1.2.:.1.3.<.C '  ...",
"i.y.' B o.%.I c v b z c v b H L +.I X.+.X.X.X.X.+.4.O.X.+.#.=.;.#.,.,.%.;.;.#.1.4.1.4.5.2.1.5.1.1.5.2.1.1.1.,.%.;.=.<.C _ ..",
"u.y.Q 2 Y I b v c c z v v H b L +.X.I #.X.X.X.X.#.4.#.+.#.;.%.#.+.1.:.;.;.;.#.4.1.1.1.5.=.,.1.1.1.5.1.1.=.,.;.,.%.b #.<.V ..",
"u.y./ u Y b v c c c z c c b H L I I I I Y X.X.X.#.1.%.#.=.%.#.=.#.;.;.;.;.;.#.1.1.=.4.5.,.1.1.1.1.5.1.1.,.:.;.=.+.@ q ;.) ..",
"u...' l s + c v c z z z H L b H L Y I +.X.X.X.X.+.,.O.#.;.#.O.=.#.%.,.;.%.;.+.,.1.,.1.5.=.,.1.1.:.4.:.,.;.,.;.#.I . $ %.[ ..",
"y.y.} Q a   3 z c z z c H L I L L I I +.X.X.X.X.#.1.O.+.O.X.+.%.#.#.,.;.#.;.%.,.1.=.1.1.;.1.4.:.,.1.1.:.;.:.;.#.H . $ O.|  .",
"y....._ l u X c z z z c b L Y +.b Y X.X.I X.X.X.+.;.O.X.X.=.#.=.O.+.4.%.+.;.#.,.;.#.,.1.;.4.,.,.:.4.:.;.;.%.;.#.@ +.I S ....",
"y.y...' l u   r c c z c c b L +.O.I X.X.Y X.X.X.#.=.O.X.+.;.#.#.+.#.4.#.#.;.%.;.,.%.,.1.;.1.:.;.;.1.;.;.;.=.,.Y . +.X.)  ...",
"y... .} Q P b e c c c c c H b I X.+.X.X.+.X.I X.=.%.O.X.+.;.;.=.O.#.4.%.=.;.#.,.:.#.;.1.;.1.;.;.;.1.%.%.#.;.;.I . m C }  . .",
"y. ...} ' V =.@ r z v v b b H b L X.X.I X.X.Y %.;.O.X.X.+.#.;.%.O.#.1.;.%.;.#.;.;.#.,.:.;.:.;.;.;.1.;.+.=.%.+.@ +.T /  ...} ",
" ... .}  .Q @.. 5 r z v H H b H b L X.X.X.X.I =.%.X.X.+.O.+.%.+.X.+.1.;.O.;.#.;.;.#.;.,.%.;.;.;.%.,.%.=.%.;.H o X.Z }  . .} ",
" . .} } } ' N & . 5 c v I X.b b H L L L +.I I O.X.X.X.+.+.#.O.O.X.+.;.%.+.;.#.;.;.#.;.;.#.%.=.;.;.;.;.%.+.I @ * m ^  . .} } ",
" . . .}  . .Q u v . c v b Y I L b H b L I X.I X.I X.X.#.=.#.X.X.X.X.,.;.O.=.O.;.;.%.;.;.%.#.#.;.;.;.;.=.O.3 o < l {  . .} } ",
" .} } { } } ^ h I . e z H X.X.b v L H L L L I +.+.X.X.O.O.X.X.X.X.X.,.%.O.#.+.#.;.#.;.;.#.#.+.;.%.=.%.;.H . = 1 Q {  .} } } ",
"} } } { }  .{ l L L + 5 b Y X.b v I b L L Y X.+.O.X.X.X.X.+.X.X.X.+.1.%.X.#.O.=.%.#.%.=.O.+.#.%.+.;.%.O.b z - j { } } } } { ",
"} } { { } } { / N K # . e I X.b b Y O.L L I +.#.X.X.X.X.X.X.X.X.+.+.;.#.X.+.X.#.#.O.=.%.+.O.#.O.+.;.O.b I %.g ! } { } } { { ",
"} { { { { } { { ^ N ; O . r L b v L X.Y b L +.O.X.X.L X.+.+.O.+.#.#.%.#.O.+.X.+.#.+.#.=.O.+.O.+.#.Y 8 I 1.A ^ { { { } } { ' ",
"} { { ' { } { { { / j < *   e c v b L Y L L X.+.X.I Y L X.+.X.O.O.+.=.O.X.#.X.#.#.O.+.,.#.O.X.+.I 8 - #.R ^ { } { { } { { ' ",
"{ { ' ' { { ' { { { ^ j J c . e v H b L b I +.O.I L L L I X.X.X.X.+.%.+.X.+.X.+.#.O.+.,.%.X.X.I 3 U y V ^ { { { { ' { { ' ' ",
"{ ' ' ' ' { ' ' { { ' ^ f $.c . . e c b H Y O.+.X.L b b b L Y X.X.X.O.X.X.O.X.O.+.+.O.%.#.H @ + I 1.M ! { } ] { ' ' { ' ' ' ",
"{ ' ' _ ' { ' ' { ' { { Q m K z % . e H b L L X.+.X.H v v b I X.I +.%.O.X.+.X.X.=.#.X.X.H + & = M F _ { } { { { ' ' { ' ' _ ",
"' ' _ / ' ' ' ' ' ' ' ] ' B N u x O.+ + 5 b L I X.+.+.L v H I =.%.O.O.X.X.O.X.X.=.O.H 3 : > ; & Q ' { { ' ' ' ' ' ' ' ' _ _ ",
"' _ ' / _ ' ' ' ' ' ' ' ' ' ^ B k t H c + . + z b I X.+.L Y %.6.7.;.I X.I X.X.b 3 7 , K &.X.j ! ' ' ' { ' ' _ ' ' _ ' ' ' ^ ",
"' ' / ^ _ ' ' ^ _ _ _ ' _ ^ ^ _ ^ B m w H O.L + . + z v r O.2.W E 3.+.c e z 7 , O.w i I A ( ] / ' ' _ ' ' _ _ ' _ _ ' _ / ^ ",
"_ _ / ^ / / _ / ^ _ ^ ' _ ^ _ _ _ ^ Q j g t d = < =   . L :.R _ _ G >.Y + % 0 K O.N h C / _ _ ^ / _ _ ' _ _ _ _ ^ _ _ _ / ^ ",
"_ ^ ^ ! / / _ ^ _ ' ^ _ ^ ! ^ _ / / _ ` ^ l l 2 i i u H +.A / { } ' S +.I w u V V Q / _ _ _ / ^ / _ / ' _ _ ^ _ _ ^ _ ^ ^ Q ",
"_ ^ ^ Q ^ ^ / ^ ^ ^ ^ ^ ^ ! ^ ^ ^ ^ / ^ / _ / Q ! l l m V ^ ' } } ' ^ D m j Q ! ^ ! ^ / ^ / ^ ^ ^ / ^ _ ^ _ ^ _ ! ^ / ^ ^ ! ",
"^ ^ ! Q ! ^ / ! ^ ^ ^ _ ^ ! ! ^ ! ^ / ^ _ ^ ^ ^ / ^ _ ! ^ ^ ` ' { _ ^ ^ ! Q Q ^ / ! ^ ^ ^ / ^ ! ^ / ^ _ ! / ^ / ^ ! ^ ^ ! Q "
};
