/* XPM */
static char *_35890b8_2223_452c_b860_edf8a73435d01741481520[] = {
/* columns rows colors chars-per-pixel */
"60 40 233 2 ",
"   c #0D0E0D",
".  c #0A0F02",
"X  c #1C060D",
"o  c #130C0C",
"O  c #1B0A0C",
"+  c #1A0A04",
"@  c #0B1401",
"#  c #05110E",
"$  c #0D120D",
"%  c #0A180B",
"&  c #1B1504",
"*  c #12130C",
"=  c #1C120C",
"-  c #151708",
";  c #060E12",
":  c #0C0E13",
">  c #0D0D1A",
",  c #0E0616",
"<  c #140716",
"1  c #1B0613",
"2  c #130D15",
"3  c #1A0B15",
"4  c #120C1A",
"5  c #190C1A",
"6  c #150619",
"7  c #061314",
"8  c #0D1114",
"9  c #061519",
"0  c #0D131A",
"q  c #0B191B",
"w  c #0A1A16",
"e  c #121215",
"r  c #141B13",
"t  c #1A1914",
"y  c #13141B",
"u  c #1A151C",
"i  c #141A1D",
"p  c #191B1D",
"a  c #1B1314",
"s  c #24090C",
"d  c #270908",
"f  c #370709",
"g  c #221A09",
"h  c #230611",
"j  c #250C13",
"k  c #3D0F11",
"l  c #261616",
"z  c #331416",
"x  c #1C210C",
"c  c #18211B",
"v  c #242202",
"b  c #2B2508",
"n  c #362804",
"m  c #282617",
"M  c #3D380B",
"N  c #0B0C21",
"B  c #0D1221",
"V  c #0C1D25",
"C  c #151522",
"Z  c #1A1524",
"A  c #151A22",
"S  c #191A23",
"D  c #1B1C2A",
"F  c #1A1729",
"G  c #1A142C",
"H  c #221522",
"J  c #231C23",
"K  c #26132C",
"L  c #1D222A",
"P  c #192427",
"I  c #1E2436",
"U  c #1D3132",
"Y  c #22242D",
"T  c #29282C",
"R  c #2A312C",
"E  c #292B31",
"W  c #252839",
"Q  c #2B3539",
"!  c #36353A",
"~  c #332B3A",
"^  c #48070C",
"/  c #480813",
"(  c #550E15",
")  c #690615",
"_  c #760A15",
"`  c #680E18",
"'  c #433A05",
"]  c #443F19",
"[  c #661423",
"{  c #3D411E",
"}  c #574B12",
"|  c #564E0A",
" . c #645A08",
".. c #685812",
"X. c #77690D",
"o. c #6B6213",
"O. c #756A14",
"+. c #79751A",
"@. c #4B4925",
"#. c #686624",
"$. c #383B43",
"%. c #2A3644",
"&. c #453349",
"*. c #3B4446",
"=. c #42414B",
"-. c #474A56",
";. c #4D5558",
":. c #51555B",
">. c #595E64",
",. c #585968",
"<. c #6E5F72",
"1. c #586465",
"2. c #5F6974",
"3. c #65676C",
"4. c #626A73",
"5. c #666675",
"6. c #79797E",
"7. c #6B7175",
"8. c #850D17",
"9. c #960818",
"0. c #84151C",
"q. c #A80E1C",
"w. c #B10F1D",
"e. c #970B22",
"r. c #961428",
"t. c #8E142C",
"y. c #B51127",
"u. c #B31837",
"i. c #BE0B21",
"p. c #CD0B1C",
"a. c #C9141D",
"s. c #D60B1C",
"d. c #F4060E",
"f. c #FC030C",
"g. c #E80C18",
"h. c #FB0314",
"j. c #FB031B",
"k. c #F40615",
"l. c #CB0D27",
"z. c #D50E25",
"x. c #DC1437",
"c. c #C5152D",
"v. c #E30B24",
"b. c #E90828",
"n. c #FA0624",
"m. c #867B0B",
"M. c #968D16",
"N. c #A59E19",
"B. c #9A902F",
"V. c #A19C37",
"C. c #BBB423",
"Z. c #B1AC2C",
"A. c #B9AE18",
"S. c #C2BB1D",
"D. c #C2BB21",
"F. c #D3CB18",
"G. c #D6CB18",
"H. c #E2DC19",
"J. c #FEE403",
"K. c #FCEA04",
"L. c #FDE60B",
"P. c #F9EC0C",
"I. c #F4EB07",
"U. c #FBF107",
"Y. c #F5EC15",
"T. c #F9EA17",
"R. c #F0E917",
"E. c #CBC523",
"W. c #D4CA24",
"Q. c #D8D428",
"!. c #D0D439",
"~. c #E2DC29",
"^. c #F4EB25",
"/. c #E5E024",
"(. c #959444",
"). c #C1BA45",
"_. c #E6E24A",
"`. c #D4D452",
"'. c #767A83",
"]. c #7C6D80",
"[. c #7E828A",
"{. c #7D8091",
"}. c #81868D",
"|. c #86898B",
" X c #858A93",
".X c #898D96",
"XX c #8B9498",
"oX c #92929A",
"OX c #8B988E",
"+X c #9799A4",
"@X c #8A9BA2",
"#X c #9DA3A8",
"$X c #A2A6A9",
"%X c #AAACB5",
"&X c #B5B8BC",
"*X c #A6B5B4",
"=X c #A79CAC",
"-X c #B1C1B7",
";X c #B6B3C2",
":X c #C9BBC8",
">X c #BCC4C7",
",X c #C6CACD",
"<X c #CAD1CD",
"1X c #C4CAD0",
"2X c #C8CCD1",
"3X c #CBD3D8",
"4X c #D6DADC",
"5X c #D2CEDC",
"6X c #DEE3DC",
"7X c #DBDAE5",
"8X c #CED8E2",
"9X c #DDE4E8",
"0X c #DBEEF5",
"qX c #E3E6ED",
"wX c #E5EAEF",
"eX c #E9EEEC",
"rX c #E3EAE3",
"tX c #EBF2EC",
"yX c #E4F1E5",
"uX c #ECEDF4",
"iX c #E6EBF4",
"pX c #F1EEFA",
"aX c #F1ECF3",
"sX c #EDF3F4",
"dX c #EDF4F9",
"fX c #ECFAFC",
"gX c #E8F7F3",
"hX c #F2F5F5",
"jX c #F5F9F5",
"kX c #F3F5FA",
"lX c #F4F9FB",
"zX c #FAFBFE",
"xX c #F1FDEF",
/* pixels */
"; ; ,   ; ; , , 0 : : : : ; ; > : : : : : : 2 : : ; : e : 2 8 : 2 : : : : : : : 2 : : e 8 2 : : 8 : :   : : : : 8 e e y ",
", ; ; ; ; ;   ; : ; ; : : : : : 8 : : 8 8 : : 2 : : : : e 8 e 8 8 2 8 2 : 8 : : : 8 : : : : : : : : : : : : : : e e y y ",
"; : ; ; ; : : ; : : ; : ; ; : : : 0 8 e 0 2 : e 2 2 8 e e e : e 2 8 : e e 8 : : : : e 8 8 : : : e : :     : : : : 8 0 e ",
": : ; , ; : : : : : : ; : : : : 8 : 8 8 e : e 8 : 8 e 8 0 : e : 0 e : 8 2 8 e : : 8 8 2 2 : e : : : : : : : : 2 2 : e 0 ",
"> : ; : ; : : : 8 : ; : : ; 8 8 8 : 8 8 2 8 8 e 8 : : 8 2 e 0 2 8 0 e : e 0 8 2 : 8 8 e 2 : e 8 2 : : : : : : : e e e y ",
"7 : > : : : 8 8 :   : : : : 8 8 : e 8 8 : e 2 : 2 2 e 2 : e e e y e e e 0 e 8 : : : 2 2 3 y 2 8 : 2   : : : 8 2 e y u u ",
"8 > : : 8 : : 8 8 8 8 : : : : : 8 2 e 4 e 2 e 8 e 0 4 8 2 e 4 e 3 e e e e e 0 7 8 : 2 2 4 3 e 2 o :   : : 0 e e e e y y ",
"8 0 0 8 : : 8 8 : 8 8 0 > 7 : : 4 e e e 4 y 2 2 e 2 e : : 8 2 e y y y e 0 8 8 ; e 2 2 3 a 4 y 3 o o     2 : e e e e y y ",
"> y e 8 e y e e t 2 C > > 0 0 : > y y u y e C e e e e y e e y e i y 0 C 0 0 8 u e 8 9 0 4 2 y 8 w $ 7   : : : : e y e y ",
"0 y e 8 y u y p y e C C C 0 C y Z C C C C y y y y y y y y e y y y i C y y e : : p q 9 0 0 : e w 0 # 8 : : e y u y 0 y i ",
"0 y 8 8 y C u p Z C C C Z N C Z G C C Z F p y e y 0 y 0 y 0 i i y A C C C p u e 8 0 9 9 q y 0 9 7 7 7 8 7 y y C y y y i ",
"i y q y C C C u F S y 4 C C Z C e C S A D D S i C i A A y C y A 0 A y y C Z u C 0 q q 7 > 0 0 B 0 0 0 y C y C C A i S i ",
"A C C C C C C p C y e e u y C e r r i y i D S F D A S S A A A i y A y u i y B S 7 7 0 : 3 3 2 5 9 B > 9 0 0 y y 0 8 y 0 ",
"A q C B B V V P P 0 p p u y p e * % c p A W Y L P D L D I Y L P L I Y E E Y I U Q V 2 4 5 3 6 j Q -.:.-.:.:.>.>.>.1.>.>.",
"4.2.4.2.2.5.4.1.*.i p i Z C y r c R 1.'.'.}.[.[.[.}.}. X X X.X X.X.XoXoXoXoX@X@X X*.y 3 3 2 y S ,.%X1X1X2X2X3X3X2X2X2X2X",
"3X3X3X3X3X8X3X>X1.P p i Z G y r % $.#X7XiXqXqXiX9XqXiXqXqXiXqXqX9XqXiXqXwXiX0X0X%X=.4 2 e 8 : c :.;XpXkXkXkXlXkXlXlXzXlX",
"dXdXfXdXfXgX0X*X*.A C 5 a & t Y C %.'.,XjXlXzXjXlXlXkXkXlXkXdXdXdXpXdXgXiXfXpX7X].Y 8 * = o e w P 2.1XfXlXkXaXzXlXlXlXkX",
"kXdXdXfXfXfX8X2.U r y u b @.b S y F Q [.7XzXlXlXjXlXzXkXdXdXuXdXdXlXdXdXdXfXpX=X&.y 8 * O - r w V Q 6.7XlXkXzXzXlXlXlXkX",
"kXfXfXgXgX0X#X%.P r & b } (.#.m p F 0 =.#XeXkXlXlXzXlXkXpXdXkXdXfXkXdXfXfXdX5X<.Y i t = z d O e i 8 ! oXqXpXkXkXlXzXzXjX",
"kXkXkXeXfX>X,.I L t g ' V._.Z.} g t C L :.&XiXlXzXlXkXkXpXuXdXhXkXsXdXgXfX0XoX&.J e - f [ [ ( f a 8 P :.%XaXjXjXjXkXjXjX",
"kXkXlXtXrX}.W D F u n X.W.^.~.N.' & p i Y 3.>XgXsXhXkXkXsXuXuXdXhXsXlXgXdX:X,.K 5 y = ^ t.u.t.^ h 2 0 L <.<XjXjXpXkXzXjX",
"kXhXjXtX&X;.D G Z g | A.R.I.R.H.M.' & - r R [.<XjXlXuXeXsXuXuXuXkXaXsXkX9X X~ K Z u z ` u.x.u._ / 1 0 p ~ [.6XzXzXjXzXjX",
"jXhXtX<X6.R D C t n m.H.U.U.Y.I.F.m.n - t r *..X9XgXtXrXeXkXuXpXkXuXaXaX;X-.K Z u s ^ q.v.b.z.y.) f   u u =.$XaXkXlXjXjX",
"jXtXtX$X*.p 8 A g | C.P.I.K.I.I.R.S.o.v - c c -.*X6XxXyXeXuXiXpXuXpXzX4X].W G Z s f 8.p.n.h.b.s.e.^ + a H Y >.;XgXlXkXjX",
"tXjX4X3.p 8 p e n M.H.Y.P.J.K.P.T.^.A.| g p Z Y 5.>XgXtXtXuXpXkXhXsXdX$X=.S C Z & [ q.a.d.h.k.g.l.9.^ j 3 H T 7.4XlXkXkX",
"kXeX$X*.y y t g  .S.P.U.K.J.J.J.J.T.~.N.' O Z G W '.3XgXgXkXpXkXtXgX<X3.T Z p 3 / _ a.g.d.f.h.k.z.i._ k s l u ! XXqXkXjX",
"tX2X3.Y F F - M N./.U.K.K.J.J.L.J.J.L.~.m.' l H C ! XX6XsXdXuXhXxXyXOX! S e l d _ w.v.d.d.f.f.d.h.g.w.) k l t c *.$XqXjX",
"6XOXR * i y v O.G.Y.U.J.J.J.J.J.K.J.K.T.D.o.b X y p *.$XwXuXsXsXtX-X;.V p O f ^ 9.l.n.h.d.f.d.f.f.k.z.9.) d = c p :.&XaX",
"-X:.c r $ * | N.^.R.J.J.J.J.L.L.J.L.P.I.^.Z.] d e e i 1.&XeXkXkX7X'.I 9 i + f _ i.b.n.j.h.k.h.j.d.k.b.c.8.f 3 r q A 7.:X",
"{.W y r @ b +.!.^.R.R.T.T.^.^.R.P.T.Y.Y.^._.B.] * 8 0 P 4.2XsXsX;X*.V V 8 O ^ 0.c.x.b.b.b.z.v.b.s.s.l.y.t.[ l q q 0 ~ ].",
"-.F 8 r w { (.`.!.Q.W.W.D.W.E.E.E.S.S.S.D.).(.@.e 8 0 # E 6.%X%X5.W B > : o / _ r.e.e.q.e.e.9.9.8.8._ ` [ z e 0 0 C 5 ! ",
"P e 7 i w m #.+.O.O.m.X...O.o.o... . ...} } @.m e w 0 0 r Y =.-.W 0 0 : 2 o d ^ ( ^ / / k k k f f d d s j e 8 q 0 4 C u ",
"8 0 > B e t g m b n b g v x x x - & & g g & * o 0 w % w y 0 > 8 8 2 4 < : 2 o + + + X X 3 3 1 h o o o o 8 8 0 0 B 0 B y ",
"y 0 0 > 8 o & & O + - & & - * $ e e - - e 2 7 % w @ @ @ : 4 e 8 % 8 : : : 7       o : < 2 < < < < o o o 2 2 4 < > 4 e 4 ",
"0 0 > 7 $ * o 2 3 e e 8 8 0 0 B y e e e y > 9 % @ @ @   2 2 2 $ % $ $ : 7 0 : > : ; ; : 2 2 : > < < 2 3 2 2 : > : : : 7 ",
"0 0 0 8 * e e 5 e e 8 w q 0 0 0 3 2 2 4 y > 8 - . @ $ e 4 4 2   2 o $ : : 0 < ,   ; ; : < 6 < : : : < 3 3 2 > > 2 : 2 : ",
"0 0 w * $ e e C 4 : 7 7 9 9 7 : o 2 > > 8 $ * $ e : , , 6 4 : 8 8 7 0 8   : < < ; ; ;   X 1 o ; 4 2 2 5 6 3 2 6 < 4 4 e ",
"e w 8 8 $ $ e 4 y 0 7 9 B B > 2   : N N 7 8 8 0 4 4 N , 6 , 2 e 7 0 9 7 :   , ; : # # ; o o   # 7 7 7 7 0 7 7 7 8 8 8 8 ",
"8 8 8 2 : e 8 e N > 8 > N > 4 2 8 : 4 N 4 2 8 4 6 4 4 5 6 < < : e 8 7 0 : 3 ,   : # . # o o o $ 8 # # # # 7 ; : : e 8 o ",
"8 e e 0 : * $   > : : 4 4 > 3 * * o 2 3 3 3 3 3 3 6 5 5 1 1 o < X 3 3 3 5 6 < , o 2 , o o O O o X X X X 3 X X X h h s s "
};
