/* XPM */
static char *_0035a03_ab93_45cd_84f3_734a8caca53f1741463284[] = {
/* columns rows colors chars-per-pixel */
"62 51 246 2 ",
"   c #0D0D02",
".  c #050B0D",
"X  c #0C0D0D",
"o  c #070A07",
"O  c #130C0D",
"+  c #190F0C",
"@  c #160F02",
"#  c #0D1203",
"$  c #06110B",
"%  c #0C120D",
"&  c #0E190C",
"*  c #071C0D",
"=  c #131304",
"-  c #1B1404",
";  c #131A03",
":  c #1D1B03",
">  c #13140C",
",  c #1B150C",
"<  c #141A0C",
"1  c #1C1B0C",
"2  c #0B0615",
"3  c #050C13",
"4  c #0C0D13",
"5  c #070C18",
"6  c #0C0D1A",
"7  c #050714",
"8  c #120D14",
"9  c #190D15",
"0  c #120D1B",
"q  c #1B0D1A",
"w  c #110710",
"e  c #061215",
"r  c #0D1214",
"t  c #061A10",
"y  c #0E1A12",
"u  c #0D121A",
"i  c #0D1919",
"p  c #131314",
"a  c #1A1414",
"s  c #141A14",
"d  c #1B1B14",
"f  c #13131B",
"g  c #1A141B",
"h  c #14191C",
"j  c #1B1B1B",
"k  c #241501",
"l  c #231C03",
"z  c #291D02",
"x  c #211609",
"c  c #231C0C",
"v  c #2A1C0B",
"b  c #28170D",
"n  c #221A13",
"m  c #221C1A",
"M  c #241816",
"N  c #321E03",
"B  c #1E2202",
"V  c #1F250B",
"C  c #1C231B",
"Z  c #162116",
"A  c #242202",
"S  c #2C2402",
"D  c #2D2C00",
"F  c #25220A",
"G  c #2D2508",
"H  c #282B05",
"J  c #322502",
"K  c #342C02",
"L  c #3B2D03",
"P  c #342B0B",
"I  c #37280B",
"U  c #2F3809",
"Y  c #343200",
"T  c #3B3201",
"R  c #383707",
"E  c #242013",
"W  c #24211C",
"Q  c #2A2417",
"!  c #332A15",
"~  c #3B3619",
"^  c #0E0E22",
"/  c #0F0A28",
"(  c #130D22",
")  c #100D28",
"_  c #0E1023",
"`  c #0E1628",
"'  c #141422",
"]  c #1A1523",
"[  c #141A22",
"{  c #1C1B22",
"}  c #1A162A",
"|  c #171C29",
" . c #18162A",
".. c #1F1C31",
"X. c #231B23",
"o. c #211425",
"O. c #152122",
"+. c #1D2526",
"@. c #212225",
"#. c #26292E",
"$. c #31262C",
"%. c #443601",
"&. c #433B01",
"*. c #4B3F03",
"=. c #42390B",
"-. c #42381A",
";. c #454100",
":. c #4C4302",
">. c #4E4A03",
",. c #4C430B",
"<. c #4E4A0B",
"1. c #544502",
"2. c #534A03",
"3. c #544B0B",
"4. c #584B08",
"5. c #5C5302",
"6. c #5C540C",
"7. c #5A5808",
"8. c #4E4615",
"9. c #5D5519",
"0. c #554F0D",
"q. c #655B04",
"w. c #625A08",
"e. c #6B6302",
"r. c #6C6A04",
"t. c #6D6409",
"y. c #746C0E",
"u. c #756907",
"i. c #7C7605",
"p. c #696215",
"a. c #766B15",
"s. c #7C7413",
"d. c #7A7616",
"f. c #6E7003",
"g. c #5B5226",
"h. c #6A6625",
"j. c #7C7437",
"k. c #79712E",
"l. c #857D0C",
"z. c #857909",
"x. c #857A13",
"c. c #867916",
"v. c #92880D",
"b. c #8D8315",
"n. c #8B8419",
"m. c #958B17",
"M. c #98931C",
"N. c #928C07",
"B. c #A39B17",
"V. c #A8A618",
"C. c #B4AD1A",
"Z. c #B5A816",
"A. c #BCB31E",
"S. c #BAB716",
"D. c #ADA90C",
"F. c #8C8524",
"G. c #9F972C",
"H. c #9B9726",
"J. c #958B35",
"K. c #8D862D",
"L. c #A69A27",
"P. c #ADA825",
"I. c #B5AC22",
"U. c #B5A724",
"Y. c #BDB423",
"T. c #BBB32B",
"R. c #B4B325",
"E. c #B6A932",
"W. c #B2B134",
"Q. c #C6BB1A",
"!. c #C3B72C",
"~. c #C4B925",
"^. c #C5B834",
"/. c #CCC51A",
"(. c #DDD51A",
"). c #D3CA15",
"_. c #E9DC06",
"`. c #FCDE01",
"'. c #FBDE0D",
"]. c #E2D31D",
"[. c #E4DD1C",
"{. c #E7DA1A",
"}. c #FCDD11",
"|. c #ECE30A",
" X c #F5E401",
".X c #FCE503",
"XX c #F5EA03",
"oX c #FDEB03",
"OX c #F4E60A",
"+X c #FDE50B",
"@X c #F5EB0C",
"#X c #FEEB0A",
"$X c #FEF103",
"%X c #FDF00B",
"&X c #EDE51B",
"*X c #EEE71A",
"=X c #F4E515",
"-X c #FCE613",
";X c #F5EA13",
":X c #FCEB13",
">X c #F2E51B",
",X c #FBE61B",
"<X c #F4EB1C",
"1X c #FBEB1A",
"2X c #F5F114",
"3X c #FDF215",
"4X c #FBF21D",
"5X c #C4C123",
"6X c #CDCA2A",
"7X c #D2C423",
"8X c #D2CA25",
"9X c #D9CD29",
"0X c #DCD323",
"qX c #DCD42B",
"wX c #D4D221",
"eX c #C8C432",
"rX c #D7C938",
"tX c #D9D237",
"yX c #E4DC23",
"uX c #E9DD22",
"iX c #E2D62F",
"pX c #E4D92B",
"aX c #E9DD29",
"sX c #E3D526",
"dX c #E5D934",
"fX c #EBE325",
"gX c #ECE42A",
"hX c #E8E629",
"jX c #F3E322",
"kX c #F3EB21",
"lX c #FAEC23",
"zX c #F2ED2D",
"xX c #F7E82B",
"cX c #F8F125",
"vX c #E8E235",
"bX c #F4E732",
"nX c #FBF330",
"mX c #989244",
"MX c #A09951",
"NX c #AFA946",
"BX c #C9BD5B",
"VX c #D8D347",
"CX c #D7D456",
"ZX c #D0C346",
"AX c #E1DC4C",
"SX c #EEE648",
/* pixels */
"$ 5 2 X X f 4 > 6 f o > f 0 2 % p 4 4 p p 4 4 8 8 p 4 4 4 f 8 8 8 4 0 0 0 f f f 4 4 8 6 u 4 r p i r X 4 4 r X r 8 4 8 8 w 9 ",
"o 5 4 8 X 5 4 X 4 p > X 4 6 r p X 4 4 8 p 8 4 4 0 f p 4 f ' 0 f r 8 4 4 8 0 4 p 8 p 8 f p s f 0 4 f p r 4 r 4 4 e 4 X 4 w w ",
". 2 4 X . 7 6 w   % > 4 4 . 7 X 4 X 4 4 8 4 r 4 6 8 8 8 a p f 6 X 4 2 4 4 p 8 4 8 f p p > > h h = p j 0 f 8 r 4 r r 4 8 8 f ",
"X 2 8 o 4 7 0 O : :   p % r u 5 5 p 2 4 0 8 p r % X p v ! A < 2 X r p r p 8 8 f 8 8 f p p > E ~ ~ s p f f p f f f p r e r r ",
"w X 2 X r 5 8 - g.k.A % X r 7 7 r 8 8 8 0 f r r p a M -.c.g.> 6 > p u u u 8 p 0 p > s p ] g P k.j.S , f p p p 0 9 8 f 4 r e ",
"X X 4 4 f 5 = J J.W.>.# % f 6 i 6 r 8 8 0 f u y u q b c.BXc.S a > f ' ' p u 9 ( p p d s g n >.R.W.:.l p p s 4 f 9 8 8 8 e r ",
"X 2 4 u f 4 - ,.^.AXM.Y = % 5 r r r p 9 0 ' f y r a %.G.SXT.6.x > p f f r p u ( f g f s a v y.wXrXc.K > r y r _ O p 8 8 0 f ",
"% 4 4 5 6 p - h.rXhXeX9.: $ f $ r p > 8 0 ' i y s l 6.^.bXpXF.J - p i i r s g ' 9 ' f d - K M.hXbXE.,.1 p s r u O 4 0 6 9 0 ",
"X X 6 5 e p Y m.fX*XuXb.P r [ f & & = 8 ( ) [ s d G s.(.1XxXY.3.n x s r & p u f u ' > 1 s <.Y.jX<X9Xc.G a p i t f p 8 9 q q ",
"4 4 0 ( f % :.C.=X@X>X!.6.= r j r s > p }  .' p 1 K M.&X+X,XiXc.G : < s & s f f u g s < : a.9XlX:XjXU.,.: > h ` i f 8 9 q q ",
"5 5 6 ' f : e./.#X#X:XuXb.Y > f p s p p } } f f : :.R.@X X+X<X~.:.l d < < & y i r h d , D M.fXlX.X#X{.x.J , f ` f u p a q 9 ",
"5 6 6 6 f A v._.oXoX#X;XQ.6.v p g h s p ] } ] j l d.9XXXoX#XXX{.n.I 1 < Z y i i r f f a 2.S.>X-X+X.X,XZ.1.F s ` i p p p p f ",
"4 r u 5 p =.Z.=XoX.X#X:XfXb.P j [ f d h f ] { d J G.aX.XoX#X X1X!.0.b > +.[ i [ u h j c y.).:X-X#X.X#X{.l.I g i [ f f a f f ",
"8 6 i r a 6.Q.:XoX.X.X#XlX~.0.c d s j { g g j 1 >.T.jX#X.X#X.X1XiXx.K : W [ [ [ [ { j S m._.#X#XoX.XoX3XZ.,.d [ h h d p f p ",
"9 6 f s F d.sX-XoXoX.X.X#XaXb.J d d j { ] d 1 F y.8X,X#X.X.XoX,X>XA.7.G j g { d X.j m *.Z.=XoX.X.X.XoX#XsXc.G g h f g f p p ",
"q ' f < K L.xX+XoX.X+X.X#X,X!.3.: E g f { d c ! M.uX-X.X.X.XoX-X:XuXx.P n j { 1 X.a 1 p.7X4XoXoX#X#X.X.XlXZ.:.n j j d a g f ",
"9 a r = 2.~.,X.XoXoX.X`.oX XyXb.D 1 f { W , A ;.R.<X X#X.X.X.X+X#X<XA.5.v W d 1 X.: D n.sX#X#XXX$X.X+XoX#X{.z.J : j X.d p h ",
"q s > B d.qX1X.XoXoXoX'.+XXX*XC.<.V C { s c S p.6X;XoX.X.XoX.X#X$X;XqXx.L n n E m c &.P.jX#X.XoXXXoXoXoX#X>XI.0.B j ] p j p ",
"g p = Y V.fX#XoXoXoX.X-X+XoX3X&Xd.H 1 j s c P F.0X2X$X.X.X$X.X#X$X#XlXA.2.b M n n A w.8X1X.XoX$XXX$XoX.XoX-XqXx.D d ] g { f ",
"g a = >.5X;X XoXoXoXoX}.+XoX$X@XR.:.c m X.1 =.R.kXXX$X.XoXoX#XXX$X$XXX[.x.I M v c S n.[.@X#XoX%X$XXXoX.XoX XxXZ.:.F { g ] q ",
"a , : d.qX@X.X.X.XoXoX.X.XoX.XXXvXi.P d X.m 5.8X1XXXoX.X+X#X.XXXXX$XXX4X!.6.v v v %.I.|.@X#X#X#XXXXX#XoX.XoX1X].d.S m g } ] ",
"a , H G.uX:X#XoXoXoXoXoX.X.X.X.X4XD.;.1 X.b v.uX#XXX%X+XoX#X#X$X$X$X$X2XdXb.L c z 5.7XOX%X:XoX#X$XoX#X#XoXoX+X,XP.&., f } ] ",
"f : ;.T.*X+X-XoX.XoXoX.XoX+X.X+XXX&Xd.H b K ~.=X#XoXXXoXoXoXoXXX$XXX#XOXlX~.5.x J l.(.@X#X#XoXoXoXoX.X#XoX.X.X:XqXu.S < { f ",
"6 : 7.6X3X#X}.+X.X.X.X.XoX`.#XoX$X<XT.&.: 4.7X-XoXoXoX.XoXoXXX$XoX%X.X:X1XaXc.! I P.&X:X#XoXoXoX.X.XoX+X#XoX$X.XxXL.R ; s p ",
"f c n.(.;X#X:X}..XoXoXoXoX.X+X+XXX2XvXi.G d.0XXXoX:XoXoXoXoXoXoX#X+X+X#X+XlX^.:.<.eX*X@X+X+XoXoX.XoXoXoXoXoX.X.X,XpXr.H t t ",
"j F H.fX3X#X.X#X.X.XoXoXoXoX+X+XXX2XzXC.=.G.fX$XXX+XoXoXoXoX.X#XoXoX#X#XoXlXVXp.5.tX;X#X.XoXoXoXoX.XoXoXoXoXoXoX+XzXH.U y t ",
"] , y.wX;X#X.X#X.X.XoX$XoXoXoX+X$X$X2XS.*.F.aXoXoX#XoXoX.X+X#X.XoXoX.XoXoX,XVXw.;.^.&X#X#X#X.XoXoXoXoXoXoXoX.XoXoXzXW.U y * ",
"' , &.I.&X#XoX.X#XoXoXXXoXoX#X.X$XXX>XN.L 1.~.OXoXoXoXoX.XoX#X#XoXoXoX$X$X<XI.;.J x.0X:X%X+X-X.XoXoXoXoX#X#XoX.XXXfXs.H y * ",
"8 > z x.sX%XoX.X#X#X.XXXoXoXoX.X.XXXvXr.G z c.{.#XoXXXoXoXoXoXoX$XoX$XoXXX*Xm.Y c :.C.<X%X#X:X+XoXoX#X$X#X#XXXoX.X7X2.z j i ",
"> = - T Y.;X XoXXX.X#XXXoX#XoX.X#X#XeX3.l v 1.Q.<X%XXX.XoXoXoX$XoXoXoXoX%XyXr.F n S l.[.XX%X.XOXoXoXXXXXXXoXoXoXlXZ.%.+ { g ",
"s < O @ i.0X:X$X.X.XoXXXoXoX.X.X+X,XL.I : m z x.uX2X%X XXXoXoXoXoXoXXX@X4X/.:.j d : 2.A.;X$XXXoXoXoXoX.X#X#XoXoXbXz.J O g g ",
"6 s 6 a %.Y.xX XoXoXoXoXoXoX.X.X#XbXy.k n m + ,.Q.|.#XXXoX$XoX$X.X$XXXOX*XD.Y ..d m A b.fXXX$XoXoXoXoX#XoXoX#X#XsXq.z X.g 8 ",
"u $ y < k a.dX,X-X.X$X X+X.X+X`.1X0X:.1 d | d v i.sX1X1XoX$XoXoX$X.X3X:XaXs.b | { j Q =.~.3XXX$XoX$X#XXXoX#XoX1X!.&.F C { q ",
"e s s = x %.U.jX1X_.$X XoXoX.XoX1XC.Y 1 Z { s - *.I.>X#X#XoXoX$XoX#X#X:XrX1.c +.{ d Q J b.gXXX$XoX$XXXXXoX#X#X,XM.J 1 C X.X.",
"e y h < q k y.tX,XoXoX.XoX.XoX.X1Xx.B s Z Z y < k y.sX#X#X+XoXoXoXoXoX<XE.J : C O.[ W - 4.eXlX@XoXXXoXoX#X%X#X&Xy.D C +.#.@.",
"% y h = ] M L T.=X#X.X+X-X+X%XOX&X7.V & O.t O.Z x Y A.2X.X:X.X.XoXoX$XkXa.! 1 h C f j n N c.gX@X#XoXoXoXoX#X3XQ.,.! @.+.+.h ",
"u u f p } o.- y.&XXX#X.X+X+X X4XQ.Y B & | i | > Q l f.hX2X$X`..X.X.X$X(.*.$.f [ s u & m + *.Q.<X-X.X.X.X.XOXxXv.S m { h h r ",
"_ i f s ..q - R S.@X#X.X`.#XoXlXv.l B < ` [ | s c 1 U C.nXOX.X.X+X.X#XS.L ] ' ' p r % > x z i.vX,X`.`.`..X-XbXw.l g f r r p ",
"u h p s } f d : f.fX=X.X.X#X3XpXw., ; p ' h h p d s : 7.qX=X#X.X.X+XkXz.S f [ [ f s > p j , &.P.jX+X`.`..X1X5XR = f 4 X X p ",
"u r 4 p 0 j s , T eXjXoX.X#X>XrXT = Z h ' & p 8 f { r D B.lX XoX`.:XbX5.l j p s g s > h g M k y.uX=X#X.X+XlXV.: = 6 f = > X ",
"$ p 4 f h r r s l u.gX#XoX#XbXL.z g f > s u _ h ' h ] v w.qX:XoX.X:XZXT F > s s h h f g s s n J Z.<X+X.X-XfXr.B s 0 ( ] a 9 ",
"$ r X p f r p s < &.~.4XoXXXfXz.k a ] p h ^ _ h ' f f = L V.cXXX+X,XM.J : s & f p p ' f j r a z u.aX1X.XoX(.;.1 p f 0 q 9 > ",
"3 r 4 r i r f h p F l.gX;X3X7X1.- 9 ' p f ^ ) ' f p f > l e.dX;X4XaXt.A d h r f p 4 ' 6 j 6 f , I I.cXXX@XZ.z d p r 0 6 8 > ",
"6 u 4 i r u u u h 1 >.6X<X<XP.N x g ' e h ' ` u % s f g d T B.zXfX5X2.- Z h u ^ f > f 6 ' ^ ' p x r.9X4XpXs., d p 4 f X X r ",
"u 6 6 u u e u u h # L m.hXhXd.x a g f 5 f p p r % = r r ] k q.VXvXM.U ; s _ ' / f = r 5 u 0 u f d K B.SXZX:., ; r 4 r 4 X % ",
"6 6 6 6 e e e r u # - w.VXVX&.v O p f u i 4 r % r $ e & 6 , T NXCXd.: & r ^ ) ) 8 = X 6 e u 6 e h - p.CXMXK = p u 2 X r % r ",
"6 2 2 6 e 3 % $ e s o I J.mXk m   X i 6 u 4 r r 4 r r & 6 f b 9.MX,.= & y ^ ^ 0 0 # % 6 f 4 5 r p = P K.j.l X p r 7 4 % r % ",
"0 5 2 6 5 e % o * e 4 c ~ -.M (   > r 5 f 0 f 6 6 6 5 % f 8 w G g.l > # & 5 ' 8 q X r 5 f o r r p = , -.~ = r $ 6 4 % $ X > ",
"2 2 8 2 2 . o $ . e p a O w ] 4 = # X 4 u u ^ ) 6 u e r r 4 8 + O O f y $ r 4 0 8 p r 4 8 0 u e % ;   8 g 8 = & e 5 4 8 w 9 ",
"X 4 w 2 4 . X X . . X p w 8 f 5 # # % 5 6 6 6 ( 6 4 r % r X 8 O , 8 p r r $ 6 0 8 r r X 4 8 e u e %   8 ( 9 O $ 6 r 4 O 9 8 ",
"o O O 2 4 4 o X 5 . o p 8 O 2 5 o % e e 6 6 6 ( 0 r r % . X 8 O g 8 4 4 y 2 8 0 0 0 % X O p u e e $ % 8 ( 8 % X e 4 2 8 w 9 "
};
