/* XPM */
static char *out[] = {
/* columns rows colors chars-per-pixel */
"62 63 256 2 ",
"   c black",
".  c #010101",
"X  c #020202",
"o  c gray1",
"O  c #040404",
"+  c gray2",
"@  c #060606",
"#  c #070707",
"$  c gray3",
"%  c #090909",
"&  c gray4",
"*  c #0B0B0B",
"=  c #0C0C0C",
"-  c gray5",
";  c #0E0E0E",
":  c gray6",
">  c #101010",
",  c #111111",
"<  c gray7",
"1  c #131313",
"2  c gray8",
"3  c #151515",
"4  c #161616",
"5  c gray9",
"6  c #181818",
"7  c #191919",
"8  c gray10",
"9  c #1B1B1B",
"0  c gray11",
"q  c #1D1D1D",
"w  c #1E1E1E",
"e  c gray12",
"r  c #202020",
"t  c gray13",
"y  c #222222",
"u  c #232323",
"i  c gray14",
"p  c #252525",
"a  c gray15",
"s  c #272727",
"d  c #282828",
"f  c gray16",
"g  c #2A2A2A",
"h  c gray17",
"j  c #2C2C2C",
"k  c #2D2D2D",
"l  c gray18",
"z  c #2F2F2F",
"x  c gray19",
"c  c #313131",
"v  c #323232",
"b  c gray20",
"n  c #343434",
"m  c #353535",
"M  c gray21",
"N  c #373737",
"B  c gray22",
"V  c #393939",
"C  c #3A3A3A",
"Z  c gray23",
"A  c #3C3C3C",
"S  c gray24",
"D  c #3E3E3E",
"F  c #3F3F3F",
"G  c gray25",
"H  c #414141",
"J  c gray26",
"K  c #434343",
"L  c #444444",
"P  c gray27",
"I  c #464646",
"U  c gray28",
"Y  c #484848",
"T  c #494949",
"R  c gray29",
"E  c #4B4B4B",
"W  c #4C4C4C",
"Q  c gray30",
"!  c #4E4E4E",
"~  c gray31",
"^  c #505050",
"/  c #515151",
"(  c gray32",
")  c #535353",
"_  c gray33",
"`  c #555555",
"'  c #565656",
"]  c gray34",
"[  c #585858",
"{  c gray35",
"}  c #5A5A5A",
"|  c #5B5B5B",
" . c gray36",
".. c #5D5D5D",
"X. c gray37",
"o. c #5F5F5F",
"O. c #606060",
"+. c gray38",
"@. c #626262",
"#. c gray39",
"$. c #646464",
"%. c #656565",
"&. c gray40",
"*. c #676767",
"=. c #686868",
"-. c DimGray",
";. c #6A6A6A",
":. c gray42",
">. c #6C6C6C",
",. c #6D6D6D",
"<. c gray43",
"1. c #6F6F6F",
"2. c gray44",
"3. c #717171",
"4. c #727272",
"5. c gray45",
"6. c #747474",
"7. c gray46",
"8. c #767676",
"9. c #777777",
"0. c gray47",
"q. c #797979",
"w. c gray48",
"e. c #7B7B7B",
"r. c #7C7C7C",
"t. c gray49",
"y. c #7E7E7E",
"u. c gray50",
"i. c #808080",
"p. c #818181",
"a. c gray51",
"s. c #838383",
"d. c #848484",
"f. c gray52",
"g. c #868686",
"h. c gray53",
"j. c #888888",
"k. c #898989",
"l. c gray54",
"z. c #8B8B8B",
"x. c gray55",
"c. c #8D8D8D",
"v. c #8E8E8E",
"b. c gray56",
"n. c #909090",
"m. c gray57",
"M. c #929292",
"N. c #939393",
"B. c gray58",
"V. c #959595",
"C. c gray59",
"Z. c #979797",
"A. c #989898",
"S. c gray60",
"D. c #9A9A9A",
"F. c #9B9B9B",
"G. c gray61",
"H. c #9D9D9D",
"J. c gray62",
"K. c #9F9F9F",
"L. c #A0A0A0",
"P. c gray63",
"I. c #A2A2A2",
"U. c gray64",
"Y. c #A4A4A4",
"T. c #A5A5A5",
"R. c gray65",
"E. c #A7A7A7",
"W. c gray66",
"Q. c #A9A9A9",
"!. c #AAAAAA",
"~. c gray67",
"^. c #ACACAC",
"/. c gray68",
"(. c #AEAEAE",
"). c #AFAFAF",
"_. c gray69",
"`. c #B1B1B1",
"'. c #B2B2B2",
"]. c gray70",
"[. c #B4B4B4",
"{. c gray71",
"}. c #B6B6B6",
"|. c #B7B7B7",
" X c gray72",
".X c #B9B9B9",
"XX c gray73",
"oX c #BBBBBB",
"OX c #BCBCBC",
"+X c gray74",
"@X c gray",
"#X c gray75",
"$X c #C0C0C0",
"%X c #C1C1C1",
"&X c gray76",
"*X c #C3C3C3",
"=X c gray77",
"-X c #C5C5C5",
";X c #C6C6C6",
":X c gray78",
">X c #C8C8C8",
",X c gray79",
"<X c #CACACA",
"1X c #CBCBCB",
"2X c gray80",
"3X c #CDCDCD",
"4X c #CECECE",
"5X c gray81",
"6X c #D0D0D0",
"7X c gray82",
"8X c #D2D2D2",
"9X c LightGray",
"0X c gray83",
"qX c #D5D5D5",
"wX c gray84",
"eX c #D7D7D7",
"rX c #D8D8D8",
"tX c gray85",
"yX c #DADADA",
"uX c gray86",
"iX c gainsboro",
"pX c #DDDDDD",
"aX c gray87",
"sX c #DFDFDF",
"dX c gray88",
"fX c #E1E1E1",
"gX c #E2E2E2",
"hX c gray89",
"jX c #E4E4E4",
"kX c gray90",
"lX c #E6E6E6",
"zX c #E7E7E7",
"xX c gray91",
"cX c #E9E9E9",
"vX c #EAEAEA",
"bX c gray92",
"nX c #ECECEC",
"mX c gray93",
"MX c #EEEEEE",
"NX c #EFEFEF",
"BX c gray94",
"VX c #F1F1F1",
"CX c gray95",
"ZX c #F3F3F3",
"AX c #F4F4F4",
"SX c gray96",
"DX c #F6F6F6",
"FX c gray97",
"GX c #F8F8F8",
"HX c #F9F9F9",
"JX c gray98",
"KX c #FBFBFB",
"LX c gray99",
"PX c #FDFDFD",
"IX c #FEFEFE",
"UX c white",
/* pixels */
"Z K K Z K K Z N z u 9 u z Z Z Z N N N N Z z Z Z Z K K Z N K K K K Z N N Z Z K Z Z ~ K K K K K K K K K K K K Z Z Z K Z Z K K ",
"Z K K Z K K Z N z u 9 u z Z Z Z N N Z Z z Z N Z Z K K Z Z N K K K Z N N Z Z K Z Z Z N K K K K Z K K K K K K Z Z Z K Z Z K K ",
"Z K Z Z Z K Z N z u 9 u z Z Z Z N Z Z Z u z z Z Z K Z Z N N K K K Z N N Z Z K Z Z Z N K z K K K K K K K K K Z Z Z K Z Z K K ",
"Z K Z Z K K N N z u 9 u z Z Z Z Z Z Z Z z Z Z Z Z K Z Z N N K K K Z N N Z Z K Z Z Z N K K K K K K K K K K K Z Z Z K Z Z K K ",
"Z Z Z Z K K z N z u 9 u z Z Z Z Z Z Z Z z Z N Z Z N Z Z N N K K K Z N N Z Z K Z Z Z N Z K K K K K K K K K K Z Z Z K Z Z K K ",
"Z K Z Z K K N N z u 9 u z Z Z N N Z Z Z z z N Z Z z Z Z N N K K K Z N N Z Z K Z Z Z N Z K K Z K K K K K K K K Z Z K Z Z K K ",
"K Z Z Z Z K Z N z u 9 u z N N N N Z Z Z Z Z N Z K z Z Z Z N K N K Z N K Z Z K Z Z Z N Z K K K K K K Z K K K K Z K K Z Z Z K ",
"K K K Z K K N N z u 9 u z N N Z Z Z Z N Z K Z Z K z K Z Z K K N Z N N K K Z K Z Z Z N Z K K Z K ~ K K K K K K Z K K K Z K K ",
"K Z K Z Z Z N N z u 9 u z N Z Z z Z N N z Z z Z K z K Z Z N K K Z Z K N Z Z Z Z Z Z K Z K Z Z K ~ K K K K K K Z K K K Z Z Z ",
"K K K Z K K N N z u 9 u z N Z K N z N N z z N Z K N K Z N K K N N N N K Z Z Z Z Z Z K Z K Z Z K ~ ~ ~ K K K K Z K K K Z K K ",
"K Z Z Z Z K N N z u 9 u z N Z Z N z N N z z z Z K N K Z N z N z z N K N Z Z Z u N N z Z Z N N K ~ ~ ~ K K K K Z K K K Z K K ",
"z z z z z z z z z u 9 u z N z z z z z z z z z z z z z z z z z z z z z z z z z z z z z z z z z z z z z z z z z z z z z z z z ",
"u u u u u u u u u u 9 1 u u u u u u u u u u u u u u u u u u u u u u u u u u u u u u u u u u u u z z z u u u u u u u u u u u ",
"u 9 9 9 9 9 9 9 9 9 9 9 9 9 9 9 9 9 9 9 9 9 9 9 9 9 9 9 9 9 9 9 9 9 9 9 9 9 9 9 9 9 9 9 9 9 9 9 9 9 9 9 9 9 9 9 9 9 9 9 9 9 ",
"u u u u u u u u u u u u u u u u u u u u u u u u u u u u u u u u u u u u u u u u u u u u u u u u u u u u u u u u u 9 u u u u ",
"K K K K K K K Z Z K K Z K K K Z K Z Z Z Z Z Z K K Z K K K Z K Z Z Z Z Z Z Z Z Z Z Z Z Z Z K K Z K K K Z K Z Z z u 9 u z K K ",
"Z z Z Z Z K K z u Z Z z Z Z z z N z N N z z u Z Z z Z Z z z N z z N K N Z Z Z N N N K z u N K Z Z N z z N z z z u 9 u z Z K ",
"Z Z K Z K K K Z N Z K z K Z z K K z N Z z Z N Z K z K Z z K K N N K N N Z Z K Z Z K N Z N K K Z Z N z K K N N z u 9 u z K K ",
"K K K Z Z Z K z Z Z K K K Z z z K z Z Z u z Z Z K K K Z z z K K K Z N K Z Z N Z Z N N z Z N K Z Z N z z K K K z u 9 u z K K ",
"K N K Z K Z K z N N Z z N K N z K z Z K Z z N z N z K K N z K Z N Z K K Z Z N Z Z N K z N K K Z Z N N z K Z N z u 9 u z K Z ",
"K Z K Z Z K K z N z z Z N Z N z K z Z Z z z N Z K Z z Z N z K Z N Z K K Z N K Z Z N K z N N K Z Z N N z K Z N z u 9 u z K Z ",
"K Z K Z K K K z N Z Z N N Z N z K z z N z z N K K K Z Z N z K Z N Z N K Z N N Z Z K Z z N N K Z Z N N z K Z N z u 9 u z K K ",
"Z Z K Z Z K K z N Z z Z Z Z N z K Z Z N Z z N Z K K K Z N z K Z N Z N K Z N N Z Z K Z z N K K Z Z N N z K Z N z u 9 u z K K ",
"Z Z Z Z Z Z K Z N N Z N N Z Z Z K z z z z Z N Z Z z K Z Z Z K Z N Z N K Z Z Z Z Z K Z Z N K K K Z N Z Z K Z N z u 9 u z K K ",
"K N Z Z Z Z K N N N z N N Z Z Z K u z Z Z N N Z K z K Z Z Z K Z N N N K Z N Z Z Z K Z N N N K K Z N Z Z K Z N z u 9 u z K Z ",
"K Z Z K K Z K Z Z N z N Z Z Z Z K u z Z z Z Z Z K ~ K Z Z Z K Z N N N K Z N K Z Z K Z Z Z N K Z Z N Z Z K Z N z u 9 u z K Z ",
"K K Z K K Z Z N N Z z N N Z Z Z K z Z N Z N N Z K K K Z Z Z K Z N N N K Z Z N K Z K Z N N N K Z Z N Z Z K Z N z u 9 u z K Z ",
"Z K Z Z K K Z N N z z Z Z Z Z K K Z z N z N N Z Z K K Z Z K K Z N N K K Z Z N K Z K Z N N N K Z Z N Z K K Z N z u 9 u z K K ",
"Z Z Z Z K K Z N Z N Z Z Z Z Z K K z z N z N Z Z Z K K Z Z K K Z N K N K Z Z N K Z K Z N Z K K Z Z N Z K K Z N z u 9 u z K K ",
"Z Z Z Z K K Z N N N z Z N Z Z K K z Z Z z N N Z Z K K Z Z K K Z K Z K K Z Z N K Z K Z N N K K Z Z N Z K K Z K z u 9 u z K K ",
"Z Z Z Z K K Z Z Z N N Z N Z Z K K Z z z z Z Z Z z z K Z Z K K Z z N N K Z Z N K Z K Z Z Z N K K Z N Z K K Z z z u 9 u z K K ",
"Z Z Z Z K Z K Z Z N N Z N Z Z K K Z Z N Z Z Z Z K K z Z Z K K Z z z N K Z Z N K Z K Z Z Z N K K Z N Z K K Z z z u 9 u z K Z ",
"Z K Z Z K Z K Z N Z z N Z Z Z K K Z Z N z Z N Z z z z Z Z K K K K K K K Z Z N K Z K Z Z N Z z z z Z Z K K K K z u 9 u z Z Z ",
"Z Z Z Z Z K K Z N N z N Z Z Z K K Z z N N Z N Z z z z Z Z K K N N Z K K K Z N K K K Z Z N Z z z z Z Z K K N N z u 9 u z Z K ",
"Z K Z Z Z Z K Z N N z N Z Z Z K K Z z N N Z N Z z z z Z Z K K K N u N K K Z N K K K Z Z N Z z z z Z Z K K K N z u 9 u z Z Z ",
"Z Z Z Z K Z K N Z Z z N Z Z N K K z z Z z N Z z K K z Z N K K Z K K N K Z Z N K Z K Z N Z z K K z Z N K K Z K z u 9 u z Z Z ",
"Z K Z Z K Z K N Z K Z N N Z N K K Z z N z N Z Z z z K Z N K K Z N Z N K Z Z N K Z K Z N Z Z z z K Z N K K Z N z u 9 u z Z Z ",
"Z Z Z Z K Z K N Z Z Z N Z Z N K K z N N z N Z Z z z Z Z N K K Z N Z N K Z Z N K Z N N N Z Z z z Z Z N K K Z N z u 9 u z Z Z ",
"Z Z Z Z Z K K N Z N N N N Z z K K z Z Z z N Z Z z z Z Z z K K Z N Z K K Z Z N K Z N K N Z Z z z Z Z z K K Z N z u 9 u z K K ",
"Z K Z Z K K K N N z z K Z K K K K z Z K Z N N z z K Z K K K K Z N Z K K Z Z N K Z N K N N z z K Z K K K K Z N z u 9 u z Z K ",
"Z Z Z Z Z Z K N Z z z z Z Z z K K z N Z Z N Z z z z Z Z z K K Z N N N K K Z N K Z N N N Z z z z Z Z z K K Z N z u 9 u z K K ",
"Z Z Z Z Z Z Z N N Z z K z Z Z K K z z N N N N Z z K z Z Z K K Z N Z N K K Z N K K K Z N N Z z K z Z Z K K Z N z u 9 u z Z K ",
"Z Z Z N N N N N N Z K z z Z Z K K z z N N N N Z K z z Z Z K K Z N N N K N Z N K K K Z N N Z K z z Z Z K K Z N z u 9 u z N K ",
"N N N N N Z Z z z N z z z N N Z Z u u z z z z N z z z N N Z Z z z z z z z u z z z z u z z N z z z N N Z Z z z z u 9 u z z z ",
"u u u u u u u u u u u u u u u u u u u u u u u u u u u u u u u u u u u u u u u u u u u u u u u u u u u u u u u z u 9 u u u u ",
"9 9 9 9 9 9 9 9 9 9 9 9 9 9 9 9 9 9 9 9 9 9 9 9 9 9 9 9 9 9 9 9 9 9 9 9 9 9 9 9 9 9 9 9 9 9 9 9 9 9 9 9 9 9 9 u 9 9 9 9 9 9 ",
"u u u u u u u u u u 9 u u u u u u u u u u u u u u u u u u u u u u u u u u u u u u u u u u u u u u u u u u u u u u u u u u u ",
"K Z K K K K K Z z u 9 u N K Z Z Z Z Z Z Z Z Z Z Z Z Z K Z K K Z Z Z Z Z Z Z Z Z Z Z Z Z Z Z Z ~ K ] ] ] ] K Z Z Z Z K K K K ",
"Z N Z Z Z Z Z N z u 9 u z K N N z z z N N N N Z K N z Z Z Z Z z z u z z Z Z K K K Z Z Z Z Z K K Z ~ ~ ~ K Z Z Z Z K Z Z K K ",
"Z N Z N Z Z Z N z u 9 u z N N N z z z z N N N Z z N z Z Z Z Z N z z N Z Z Z K K K Z Z Z Z N N K Z ~ ~ ~ K Z Z Z Z K Z Z K K ",
"Z N Z N Z N Z N z u 9 u z N N Z u z z z N Z z Z z N Z z Z N Z K N N K Z Z Z K K K Z Z Z Z N N K K ~ K ~ K Z Z Z Z K Z N K K ",
"Z N Z Z K Z Z N z u 9 u z N Z K Z z z z Z K Z Z z N N Z K Z Z N K K N Z Z Z K K K Z Z Z K Z N K Z ~ K ~ Z N Z Z Z K Z Z K K ",
"N N Z Z Z Z Z N z u 9 u z Z Z Z z z z z Z Z N Z z N N Z Z Z Z N N N N Z Z Z K K K Z K Z Z Z N K Z ~ K ~ K Z Z Z Z K Z Z K K ",
"N N Z N Z Z Z N z u 9 u z N Z Z z Z N z N N N Z z N N z Z Z Z N N N N Z Z Z K K K Z Z Z Z Z N K Z ~ K ~ K Z Z Z Z K Z N K K ",
"Z N N N Z Z Z N z u 9 u z z N N Z z N z N N N Z z N N z Z Z Z K N N N Z Z Z K K K K Z Z Z Z K K Z ~ K ~ K K Z Z Z K N Z K K ",
"N N Z N N N Z N z u 9 u z Z Z Z N z N N z N N Z Z N Z Z z Z Z N Z Z N N Z Z K K N u N K N K K K K ~ K ~ K K Z Z Z K Z Z K K ",
"Z Z N Z Z Z N N z u 9 u z N Z Z N N N N Z z Z Z Z K K Z N K Z K Z Z N N Z Z K Z N ~ K K K K K K K ~ K K K K Z Z Z K K Z K K ",
"N N z N Z N z N z u 9 u z z N N N N Z Z z Z N Z Z K K Z Z N Z N Z Z N N Z Z K Z N Z N K K K K K K ~ K K K K Z Z Z K Z Z K K ",
"z N Z Z N Z N N z u 9 u z z z z N Z N N u z z Z Z K Z Z N N Z z z Z N N Z Z K Z N Z N K z K K K K ~ K ~ K K Z Z Z K Z Z K K ",
"z Z Z N N N Z N z u 9 u z z N N Z N z z z Z Z Z Z K Z Z N N Z z z Z N N Z Z K Z N Z N K ~ K K K K ~ K ~ K K Z Z Z K Z Z K K ",
"N Z N N Z N N N z u 9 u z z Z Z Z z z z z Z N Z Z N Z Z N N Z K N Z N N Z Z K Z N Z N Z K K K K K K K ~ K K Z Z Z K Z Z K K ",
"Z N N Z Z z N N z u 9 u z Z N N N Z Z N z z N Z Z z Z Z N N K ~ K Z N N Z Z K Z Z Z N Z K K Z K K K K K K K K Z Z K Z Z K K ",
"N N N Z K Z N N z u 9 u z N Z K Z N N N N N N N N N N Z N Z K K K N Z N Z Z K N N K Z Z N N N K K K K K K K Z Z Z K Z N K K "
};
