/* XPM */
static char *_7c88fd07b0f4170f6c68d489e84f222VYJEowx40jKFO72G[] = {
/* columns rows colors chars-per-pixel */
"64 64 14 1 ",
"  c #E8E6D5",
". c #E7E4D3",
"X c #E1DECD",
"o c #A8A595",
"O c #DEDCCA",
"+ c #ADAA99",
"@ c #DBD9C7",
"# c #E4E1D0",
"$ c #B1AE9D",
"% c #EEECDB",
"& c #B5B2A1",
"* c #A29E8F",
"= c #D8D6C4",
"- c #D5D3C1",
/* pixels */
"****oooooooooo++**********oooooooooo**********ooooooo***********",
"***oooo+o+++++&$oooo**oooo++++$$$$$$o*oooo**oo+o++++++**oo**oo**",
"+$. O@@@@@######OOO=oo. @@@@--######@@@@##$+. O@OO####@=---=X#&$",
"+&%%##XXOX   . .XXXOoo%%XXOO==.... .XXXX..$+%%##X#.  .XO==@@..&$",
"o+%%% ..    ......%.++%% .OOOOOO.......#O@oo%%% OO..........  &$",
"o+%%%%..    ......% ++%%  OOOOOO........O@oo%%% XO....... ... &$",
"+$O#%%..OOOO......X@oo@X............==#.O@$+@X............@=OO&$",
"$&O#  ..OOOO.....#O@oo@X............==##O@$+@O............==OO&$",
"$&.   ........#X==OO++X...XOOX....%%.#XOO@$$# ....XXXX..XXOO=-&$",
"$&# ##########O@--@@++O###O@@@####  ##O@@@$$X.####@@@@##@@@@--&$",
"oooooo++oo++++oo++++oooo$$++++$$$$++++$$$$++$&$$+ooooooooooo+$+o",
"oooo**oo**oo++ooo+++++oo++++++$$+o++++$$$$$$$$++oooo**oo****+$++",
"#XO@--XXO=oo. O@@@@OX###@@--@@..+o.%  @=######@@###Ooo. @@==####",
"  #X@@..#Ooo %##XXXX....XO==OO  +o%%%%OO.    .##   #+o %#X@@.   ",
"....##..X@oo%%% ...........#==OO++ %  .. %......@=X@++ % .@=X#..",
".......#X@oo %% ...........#==OO++ % ...% ......@=O@$$ %  @@##..",
"XX....@==-oo@X....XX......OO..XO&$# ....@=........X@oo@X........",
"OO...#====oo=O#...XX......@@..O@&$X.....==........X@oo=X.....#..",
"XO==OOOO.#oo=OOOOX.. .XOXXOOXOXO++=@=@OXOOXXOX..@=@=$+# ..@@==OO",
"@@--@@@@XOoo-@==@@####@@@@@@@@@=+o----@@@@@@@@##=-=-$$O###=---==",
"++oooo++++oo++oooooooooooo++oooooo+++++$++++++oo++++o++$$+oooo++",
"ooo+o+++++$$++oo++ooo*oooo+++++++$$$++$$++oo++oo++++$$$$$+oo++oo",
"$& %.#O@@@######OO##$$. @@OO##XXOO@@OO##--++. O@@@@O########=-$o",
"$&%%  XOOX. ....XX.#$$%%XX##....XXOX##..@=++ %#XOOXX. . ...#@=$o",
"+$%%% ........@@..X@oo%%%%..........  O@OO&$%%% O@......XX@=#.&$",
"+$%%% ........@@..X@oo%%%% .........% O@OO&$ %  OO......XX@@..&$",
"+$ %##  ....XX....X@$$O#  OO##..........XO+o. ##  ............&$",
"+$. X#  ....OO...#O@$$OX  O@##.....#....OO+o# X#  ........... &$",
"+$=@OXXX......OO==O@oo. ..........@=@OXXXO$+-@OOXX. XXO@@@..@=&$",
"+$--@@@@######@=--@=oo#.X########X--==OO@=$+-=@@@@..OO====##--&$",
"++$$$+++&$$$&$oooo++oo++++++oooooooo++++oo**oo$$$$&&&&$$++oooo**",
"&$$$++++$$++&&oooo+++++++$++oo*o**oo++++oooooo$$$$$$++$$$$oooooo",
"##@=###.#X$$ %.######X@@--X###@=oo# @@XXXX...#@=## #**. .#####@=",
" .OO    .#$$%%  .  ...XO=@...#XOoo %XX..##    OO  %.** %      OO",
"....  XO@=++%%%%............==O@oo %%   #X@@......X@oo %% .#OOOO",
"....% XO@@++%%%%.......... .==OOoo %%%  #X@@......X@oo %% .#OOOO",
"XO@@....O@$$O#  OOOO..OO  %%..O@o*=X..............O@oo@#........",
"OO==#...O@$$O#  OO@@..@@     .O@o*=O#.............O@oo@X........",
"XXXOXXOOOO&$# ....OOOO==OO#XXXOO$+X...#XO@OXXO@=OOXO$$.%..XOOO..",
"OOOO@@@@@@&$X#####@@@@--@@OO@@@@$+O.##OO@=@@@@--@@O@&$# ##@@@@XX",
"++oooo$$$$++&$++oo+$$$++$$$+oo+o**$&&&&&++$$+++o&&&&$$&&&$oo++oo",
"oo***o$$$$$$$$oooo++oo++++++oooooo++++$$oooo++oo&&&$&&$$$$oooo**",
"$&. --OX##...#---=#X++# @@@@@@@@X#XXXX--XO+o. @@XO@@XXXX@@@@@=$o",
"$&%%O@#.      @@@@ .++ %XXXOXXXX......@@.#+o%%##.#XX....XXXXXO&+",
"+$%%%  .....##.... .$$%%% ........#XXX..XO++%%%%......  XO....&+",
"+$%%%%......##. .. .$$ %%  .......#XXX..X@++%%%%  ....% XX....&o",
"+$@#......OO %  ..O@ooO#. ....OO@@#.....X@$+@X.  .O@##......XO&+",
"+$@X......@O  % ..O@ooO#......OO@@......O@$+@X....@@X#.....#OO$+",
"$&.  .XOOX#.#XXXOOO@$+# ..XXXX......XOOOO@oo.%  OO@@@O..@@@@=-$o",
"&&#.##O@@@##OO@@@@@=$$X.##O@@@###X#X@@@@@=oo#  .@=====#X=-----$o",
"oo+ooo&$+o+ooo$$++$$++$$$$++oooo+ooo$$$$++oo++++++oooo+$++oooo**",
"++oooo$$oo**oo+$++++$$$$++oooooooooo++$+++++++oo++oo**++++oo*ooo",
"##@@@@OOXO++. XO--@@####O@@@###X$+. ######@=-=@@@@@-oo. XX#XOO##",
" .XXOO##.#$+%% .@@XX.   XXXX   .$+ %  ....XO@@XXOOX@o+%%....##. ",
"...#@@##O@oo%%%% %............XOo* %  XX.........#O@++%%%%......",
"....@@##O@oo%%%%%% ...........O@o* %% XX..........O@++ %%%......",
".....#@=O@ooO#  XX....XO@@....X@oo@#............@=O@++# ..OOOO##",
"......@=O@oo@#  XX....XO=@....O@+o@X............==O@++X ..O@OOXX",
"..XXXXOO=-$$#.. ........XXXXXXOO+o#    .XXXXXX..OOO@oo#   ......",
"##OOOOO@--$$X.###.######OO@@O@@@+o# . .#OO@@OO##O@O=ooX.......#.",
"$$&&&&$$$$oo$$$+++oooooo++++$$$$+$&&&&&$++++oooo$&&$++$$$$++$+oo",
"o+$$$$$$$++o++++oo******++++++$$$&$$++++oo**oooo+$$$$$$+++oo++**",
"&&#.XXXX@@===@XX@=@-ooX.XXX#####OOXXXXXX@-+oX.@@@@XX###X@@--XX&+",
"&& % ...OOOOOO..XOX@o*.%......  ###.....X@+o.%XXOX. .  .XO@@.#&+"
};
